<svg width="83" height="83" viewBox="0 0 83 83" fill="none" xmlns="http://www.w3.org/2000/svg">
<path fill-rule="evenodd" clip-rule="evenodd" d="M38.041 13.8332C24.6711 13.8332 13.8327 24.6716 13.8327 38.0415C13.8327 51.4115 24.6711 62.2498 38.041 62.2498C44.722 62.2498 50.7708 59.5435 55.151 55.1673C55.1562 55.162 55.1615 55.1568 55.1667 55.1515C55.1707 55.1476 55.1746 55.1437 55.1785 55.1398C59.5478 50.7605 62.2494 44.7165 62.2494 38.0415C62.2494 24.6716 51.411 13.8332 38.041 13.8332ZM62.3648 57.463C66.6211 52.1393 69.166 45.3876 69.166 38.0415C69.166 20.8516 55.231 6.9165 38.041 6.9165C20.8511 6.9165 6.91602 20.8516 6.91602 38.0415C6.91602 55.2315 20.8512 69.1665 38.041 69.1665C45.393 69.1665 52.1495 66.6175 57.4752 62.3551L70.1778 75.0692C71.5278 76.4203 73.7175 76.4213 75.0687 75.0714C76.4198 73.7214 76.4208 71.5317 75.0709 70.1805L62.3648 57.463ZM34.5827 20.7498C34.5827 18.8399 36.131 17.2915 38.041 17.2915C49.5008 17.2915 58.791 26.5816 58.791 38.0415C58.791 39.9515 57.2427 41.4998 55.3327 41.4998C53.4227 41.4998 51.8744 39.9515 51.8744 38.0415C51.8744 30.4016 45.6809 24.2082 38.041 24.2082C36.131 24.2082 34.5827 22.6598 34.5827 20.7498Z" fill="black"/>
</svg>
